<svg width="64" height="64" viewBox="0 0 64 64" fill="none" xmlns="http://www.w3.org/2000/svg">
    <circle cx="32" cy="32" r="32" fill="#C0C0C0"/>
    <path d="M44.2917 20.6579C44.2649 20.4629 44.0941 20.355 43.9529 20.3431C43.812 20.3313 40.8298 20.1103 40.8298 20.1103C40.8298 20.1103 38.7587 18.0541 38.5313 17.8265C38.3039 17.5991 37.8597 17.6683 37.6872 17.719C37.6619 17.7265 37.2347 17.8583 36.5282 18.077C35.8363 16.0861 34.6153 14.2566 32.4672 14.2566C32.4079 14.2566 32.3469 14.259 32.2859 14.2624C31.675 13.4545 30.9182 13.1035 30.2645 13.1035C25.2607 13.1035 22.87 19.3589 22.1205 22.5376C20.1761 23.1401 18.7948 23.5685 18.6184 23.6239C17.5331 23.9643 17.4987 23.9985 17.3562 25.0212C17.249 25.7955 14.4092 47.7569 14.4092 47.7569L36.5374 51.9029L48.5272 49.3091C48.5272 49.3091 44.3182 20.8529 44.2917 20.6579ZM35.3052 18.4552L33.4328 19.0347C33.4334 18.9028 33.4341 18.7729 33.4341 18.631C33.4341 17.3936 33.2623 16.3974 32.9868 15.6077C34.0936 15.7466 34.8308 17.0059 35.3052 18.4552ZM31.6138 15.853C31.9215 16.6241 32.1216 17.7306 32.1216 19.2238C32.1216 19.3002 32.1209 19.3701 32.1203 19.4407C30.9026 19.8179 29.5794 20.2274 28.2532 20.6383C28.9979 17.7645 30.3936 16.3766 31.6138 15.853ZM30.1271 14.4457C30.3431 14.4457 30.5607 14.519 30.7689 14.6623C29.1652 15.4169 27.4463 17.3175 26.7204 21.1129L23.6637 22.0596C24.5139 19.1647 26.533 14.4457 30.1271 14.4457Z" fill="black"/>
    <path d="M43.953 20.343C43.8121 20.3313 40.8299 20.1102 40.8299 20.1102C40.8299 20.1102 38.7588 18.0541 38.5314 17.8265C38.4464 17.7418 38.3316 17.6984 38.2117 17.6797L36.5386 51.9026L48.5273 49.3091C48.5273 49.3091 44.3183 20.8528 44.2918 20.6578C44.265 20.4628 44.0942 20.3549 43.953 20.343Z" fill="#191818"/>
    <path d="M32.4673 26.9681L30.9889 31.3657C30.9889 31.3657 29.6936 30.6744 28.1058 30.6744C25.7781 30.6744 25.661 32.1352 25.661 32.5033C25.661 34.5118 30.8966 35.2813 30.8966 39.9859C30.8966 43.6873 28.549 46.0707 25.3836 46.0707C21.5851 46.0707 19.6426 43.7067 19.6426 43.7067L20.6596 40.3463C20.6596 40.3463 22.6564 42.0605 24.3413 42.0605C25.4422 42.0605 25.8901 41.1937 25.8901 40.5604C25.8901 37.9404 21.5947 37.8236 21.5947 33.5185C21.5947 29.8951 24.1954 26.3887 29.4452 26.3887C31.468 26.3887 32.4673 26.9681 32.4673 26.9681Z" fill="white"/>
</svg>
