<?xml version="1.0" standalone="no"?>
<!DOCTYPE svg PUBLIC "-//W3C//DTD SVG 20010904//EN"
 "http://www.w3.org/TR/2001/REC-SVG-20010904/DTD/svg10.dtd">
<svg version="1.0" xmlns="http://www.w3.org/2000/svg"
 width="700.000000pt" height="700.000000pt" viewBox="0 0 700.000000 700.000000"
 preserveAspectRatio="xMidYMid meet">
<metadata>
Created by potrace 1.14, written by Peter Selinger 2001-2017
</metadata>
<g transform="translate(0.000000,700.000000) scale(0.100000,-0.100000)"
fill="#000000" stroke="none">
<path d="M799 6114 c-100 -30 -173 -102 -201 -199 -22 -73 -20 -4778 1 -4840
28 -80 76 -133 161 -173 l55 -27 2673 0 c2429 0 2677 1 2722 16 65 21 113 55
149 104 62 86 58 -85 57 2525 l-2 2385 -23 47 c-31 64 -84 116 -150 147 l-56
25 -2674 1 c-1968 0 -2683 -3 -2712 -11z m3541 -1160 c0 -2 -5 -15 -11 -31 -6
-15 -28 -75 -49 -133 -21 -58 -102 -280 -180 -495 -78 -214 -160 -439 -182
-500 -22 -60 -46 -126 -53 -145 -8 -19 -55 -150 -106 -290 -50 -140 -97 -269
-105 -287 -8 -17 -14 -34 -14 -38 0 -4 -18 -55 -39 -114 -22 -58 -64 -173 -95
-256 -67 -184 -217 -596 -223 -611 -3 -8 -95 -11 -312 -11 l-309 -1 8 27 c10
32 109 306 345 951 97 267 197 539 220 605 24 66 85 233 135 370 51 138 98
268 105 290 7 22 18 51 24 65 5 14 38 102 72 195 53 147 107 295 140 386 l10
27 310 -1 c170 0 309 -2 309 -3z m-1923 -643 l194 -193 -309 -309 -309 -308
309 -309 309 -309 -207 -207 -207 -207 -516 515 -515 516 514 515 c430 431
516 512 529 502 8 -7 102 -99 208 -206z m2902 -1327 l-516 -515 -206 207 -207
206 309 309 309 309 -309 309 -309 309 207 206 207 207 515 -515 516 -516
-516 -516z"/>
</g>
</svg>
