<svg width="256" height="256" viewBox="0 0 256 256" fill="none" xmlns="http://www.w3.org/2000/svg">
<path d="M181.334 74.6666C144.752 74.6666 113.546 97.6857 101.412 130.03L121.392 137.522C130.493 113.264 153.897 96 181.334 96C188.782 96 195.933 97.2723 202.582 99.6114C227.483 108.373 245.334 132.102 245.334 160C245.334 195.346 216.68 224 181.334 224H74.667C39.3208 224 10.667 195.346 10.667 160C10.667 132.102 28.5172 108.373 53.4194 99.6114C53.3625 98.4148 53.3337 97.2108 53.3337 96C53.3337 54.7628 86.7631 21.3333 128 21.3333C162.582 21.3333 191.673 44.8425 200.162 76.7508C194.105 75.3867 187.803 74.6666 181.334 74.6666Z" fill="url(#paint0_linear_207_36)"/>
<defs>
<linearGradient id="paint0_linear_207_36" x1="128" y1="21.3333" x2="128" y2="224" gradientUnits="userSpaceOnUse">
<stop stop-color="#FC4B6D"/>
<stop offset="1" stop-color="#3B82F6"/>
</linearGradient>
</defs>
</svg>
